<?xml version="1.0" encoding="UTF-8" standalone="no"?>
<!DOCTYPE svg PUBLIC "-//W3C//DTD SVG 1.1//EN" "http://www.w3.org/Graphics/SVG/1.1/DTD/svg11.dtd">
<svg width="100%" height="100%" viewBox="0 0 800 800" version="1.1" xmlns="http://www.w3.org/2000/svg" xmlns:xlink="http://www.w3.org/1999/xlink" xml:space="preserve" xmlns:serif="http://www.serif.com/" style="fill-rule:evenodd;clip-rule:evenodd;stroke-linecap:round;stroke-linejoin:round;">
    <rect id="Artboard1" x="0" y="0" width="800" height="800" style="fill:none;"/>
    <clipPath id="_clip1">
        <rect id="Artboard11" serif:id="Artboard1" x="0" y="0" width="800" height="800"/>
    </clipPath>
    <g clip-path="url(#_clip1)">
        <g transform="matrix(1,0,0,1,-5.68434e-14,20.119)">
            <g transform="matrix(1.08691,0,0,1.08691,-50.6402,-51.6071)">
                <path d="M690.62,148.576C690.62,133.342 678.252,120.974 663.019,120.974L166.196,120.974C150.963,120.974 138.595,133.342 138.595,148.576L138.595,645.398C138.595,660.631 150.963,672.999 166.196,672.999L663.019,672.999C678.252,672.999 690.62,660.631 690.62,645.398L690.62,148.576Z" style="fill:rgb(47,51,96);"/>
            </g>
            <g>
                <g>
                    <g transform="matrix(0.955186,0,0,0.752149,-14.8819,183.325)">
                        <clipPath id="_clip2">
                            <rect x="172.618" y="693.421" width="52.346" height="66.476"/>
                        </clipPath>
                        <g clip-path="url(#_clip2)">
                            <path d="M224.963,655.122C224.963,636.778 213.236,621.884 198.79,621.884C184.345,621.884 172.618,636.778 172.618,655.122L172.618,726.66C172.618,745.004 184.345,759.898 198.79,759.898C213.236,759.898 224.963,745.004 224.963,726.66L224.963,655.122Z" style="fill:rgb(47,51,96);"/>
                        </g>
                    </g>
                    <g transform="matrix(0.955186,0,0,0.752149,322.618,183.325)">
                        <clipPath id="_clip3">
                            <rect x="172.618" y="693.421" width="52.346" height="66.476"/>
                        </clipPath>
                        <g clip-path="url(#_clip3)">
                            <path d="M224.963,655.122C224.963,636.778 213.236,621.884 198.79,621.884C184.345,621.884 172.618,636.778 172.618,655.122L172.618,726.66C172.618,745.004 184.345,759.898 198.79,759.898C213.236,759.898 224.963,745.004 224.963,726.66L224.963,655.122Z" style="fill:rgb(47,51,96);"/>
                        </g>
                    </g>
                    <g transform="matrix(0.955186,0,0,0.752149,210.118,183.325)">
                        <clipPath id="_clip4">
                            <rect x="172.618" y="693.421" width="52.346" height="66.476"/>
                        </clipPath>
                        <g clip-path="url(#_clip4)">
                            <path d="M224.963,655.122C224.963,636.778 213.236,621.884 198.79,621.884C184.345,621.884 172.618,636.778 172.618,655.122L172.618,726.66C172.618,745.004 184.345,759.898 198.79,759.898C213.236,759.898 224.963,745.004 224.963,726.66L224.963,655.122Z" style="fill:rgb(47,51,96);"/>
                        </g>
                    </g>
                    <g transform="matrix(0.955186,0,0,0.752149,97.6181,183.325)">
                        <clipPath id="_clip5">
                            <rect x="172.618" y="693.421" width="52.346" height="66.476"/>
                        </clipPath>
                        <g clip-path="url(#_clip5)">
                            <path d="M224.963,655.122C224.963,636.778 213.236,621.884 198.79,621.884C184.345,621.884 172.618,636.778 172.618,655.122L172.618,726.66C172.618,745.004 184.345,759.898 198.79,759.898C213.236,759.898 224.963,745.004 224.963,726.66L224.963,655.122Z" style="fill:rgb(47,51,96);"/>
                        </g>
                    </g>
                    <g transform="matrix(0.955186,0,0,0.752149,435.118,183.325)">
                        <clipPath id="_clip6">
                            <rect x="172.618" y="693.421" width="52.346" height="66.476"/>
                        </clipPath>
                        <g clip-path="url(#_clip6)">
                            <path d="M224.963,655.122C224.963,636.778 213.236,621.884 198.79,621.884C184.345,621.884 172.618,636.778 172.618,655.122L172.618,726.66C172.618,745.004 184.345,759.898 198.79,759.898C213.236,759.898 224.963,745.004 224.963,726.66L224.963,655.122Z" style="fill:rgb(47,51,96);"/>
                        </g>
                    </g>
                </g>
                <g transform="matrix(1,0,0,-1,-5.68434e-14,759.762)">
                    <g transform="matrix(0.955186,0,0,0.752149,-14.8819,183.325)">
                        <clipPath id="_clip7">
                            <rect x="172.618" y="693.421" width="52.346" height="66.476"/>
                        </clipPath>
                        <g clip-path="url(#_clip7)">
                            <path d="M224.963,655.122C224.963,636.778 213.236,621.884 198.79,621.884C184.345,621.884 172.618,636.778 172.618,655.122L172.618,726.66C172.618,745.004 184.345,759.898 198.79,759.898C213.236,759.898 224.963,745.004 224.963,726.66L224.963,655.122Z" style="fill:rgb(47,51,96);"/>
                        </g>
                    </g>
                    <g transform="matrix(0.955186,0,0,0.752149,322.618,183.325)">
                        <clipPath id="_clip8">
                            <rect x="172.618" y="693.421" width="52.346" height="66.476"/>
                        </clipPath>
                        <g clip-path="url(#_clip8)">
                            <path d="M224.963,655.122C224.963,636.778 213.236,621.884 198.79,621.884C184.345,621.884 172.618,636.778 172.618,655.122L172.618,726.66C172.618,745.004 184.345,759.898 198.79,759.898C213.236,759.898 224.963,745.004 224.963,726.66L224.963,655.122Z" style="fill:rgb(47,51,96);"/>
                        </g>
                    </g>
                    <g transform="matrix(0.955186,0,0,0.752149,210.118,183.325)">
                        <clipPath id="_clip9">
                            <rect x="172.618" y="693.421" width="52.346" height="66.476"/>
                        </clipPath>
                        <g clip-path="url(#_clip9)">
                            <path d="M224.963,655.122C224.963,636.778 213.236,621.884 198.79,621.884C184.345,621.884 172.618,636.778 172.618,655.122L172.618,726.66C172.618,745.004 184.345,759.898 198.79,759.898C213.236,759.898 224.963,745.004 224.963,726.66L224.963,655.122Z" style="fill:rgb(47,51,96);"/>
                        </g>
                    </g>
                    <g transform="matrix(0.955186,0,0,0.752149,97.6181,183.325)">
                        <clipPath id="_clip10">
                            <rect x="172.618" y="693.421" width="52.346" height="66.476"/>
                        </clipPath>
                        <g clip-path="url(#_clip10)">
                            <path d="M224.963,655.122C224.963,636.778 213.236,621.884 198.79,621.884C184.345,621.884 172.618,636.778 172.618,655.122L172.618,726.66C172.618,745.004 184.345,759.898 198.79,759.898C213.236,759.898 224.963,745.004 224.963,726.66L224.963,655.122Z" style="fill:rgb(47,51,96);"/>
                        </g>
                    </g>
                    <g transform="matrix(0.955186,0,0,0.752149,435.118,183.325)">
                        <clipPath id="_clip11">
                            <rect x="172.618" y="693.421" width="52.346" height="66.476"/>
                        </clipPath>
                        <g clip-path="url(#_clip11)">
                            <path d="M224.963,655.122C224.963,636.778 213.236,621.884 198.79,621.884C184.345,621.884 172.618,636.778 172.618,655.122L172.618,726.66C172.618,745.004 184.345,759.898 198.79,759.898C213.236,759.898 224.963,745.004 224.963,726.66L224.963,655.122Z" style="fill:rgb(47,51,96);"/>
                        </g>
                    </g>
                </g>
                <g transform="matrix(6.12323e-17,-1,1,6.12323e-17,20.119,779.881)">
                    <g transform="matrix(0.955186,0,0,0.752149,-14.8819,183.325)">
                        <clipPath id="_clip12">
                            <rect x="172.618" y="693.421" width="52.346" height="66.476"/>
                        </clipPath>
                        <g clip-path="url(#_clip12)">
                            <path d="M224.963,655.122C224.963,636.778 213.236,621.884 198.79,621.884C184.345,621.884 172.618,636.778 172.618,655.122L172.618,726.66C172.618,745.004 184.345,759.898 198.79,759.898C213.236,759.898 224.963,745.004 224.963,726.66L224.963,655.122Z" style="fill:rgb(47,51,96);"/>
                        </g>
                    </g>
                    <g transform="matrix(0.955186,0,0,0.752149,322.618,183.325)">
                        <clipPath id="_clip13">
                            <rect x="172.618" y="693.421" width="52.346" height="66.476"/>
                        </clipPath>
                        <g clip-path="url(#_clip13)">
                            <path d="M224.963,655.122C224.963,636.778 213.236,621.884 198.79,621.884C184.345,621.884 172.618,636.778 172.618,655.122L172.618,726.66C172.618,745.004 184.345,759.898 198.79,759.898C213.236,759.898 224.963,745.004 224.963,726.66L224.963,655.122Z" style="fill:rgb(47,51,96);"/>
                        </g>
                    </g>
                    <g transform="matrix(0.955186,0,0,0.752149,210.118,183.325)">
                        <clipPath id="_clip14">
                            <rect x="172.618" y="693.421" width="52.346" height="66.476"/>
                        </clipPath>
                        <g clip-path="url(#_clip14)">
                            <path d="M224.963,655.122C224.963,636.778 213.236,621.884 198.79,621.884C184.345,621.884 172.618,636.778 172.618,655.122L172.618,726.66C172.618,745.004 184.345,759.898 198.79,759.898C213.236,759.898 224.963,745.004 224.963,726.66L224.963,655.122Z" style="fill:rgb(47,51,96);"/>
                        </g>
                    </g>
                    <g transform="matrix(0.955186,0,0,0.752149,97.6181,183.325)">
                        <clipPath id="_clip15">
                            <rect x="172.618" y="693.421" width="52.346" height="66.476"/>
                        </clipPath>
                        <g clip-path="url(#_clip15)">
                            <path d="M224.963,655.122C224.963,636.778 213.236,621.884 198.79,621.884C184.345,621.884 172.618,636.778 172.618,655.122L172.618,726.66C172.618,745.004 184.345,759.898 198.79,759.898C213.236,759.898 224.963,745.004 224.963,726.66L224.963,655.122Z" style="fill:rgb(47,51,96);"/>
                        </g>
                    </g>
                    <g transform="matrix(0.955186,0,0,0.752149,435.118,183.325)">
                        <clipPath id="_clip16">
                            <rect x="172.618" y="693.421" width="52.346" height="66.476"/>
                        </clipPath>
                        <g clip-path="url(#_clip16)">
                            <path d="M224.963,655.122C224.963,636.778 213.236,621.884 198.79,621.884C184.345,621.884 172.618,636.778 172.618,655.122L172.618,726.66C172.618,745.004 184.345,759.898 198.79,759.898C213.236,759.898 224.963,745.004 224.963,726.66L224.963,655.122Z" style="fill:rgb(47,51,96);"/>
                        </g>
                    </g>
                </g>
                <g transform="matrix(-6.12323e-17,-1,-1,6.12323e-17,779.881,779.881)">
                    <g transform="matrix(0.955186,0,0,0.752149,-14.8819,183.325)">
                        <clipPath id="_clip17">
                            <rect x="172.618" y="693.421" width="52.346" height="66.476"/>
                        </clipPath>
                        <g clip-path="url(#_clip17)">
                            <path d="M224.963,655.122C224.963,636.778 213.236,621.884 198.79,621.884C184.345,621.884 172.618,636.778 172.618,655.122L172.618,726.66C172.618,745.004 184.345,759.898 198.79,759.898C213.236,759.898 224.963,745.004 224.963,726.66L224.963,655.122Z" style="fill:rgb(47,51,96);"/>
                        </g>
                    </g>
                    <g transform="matrix(0.955186,0,0,0.752149,322.618,183.325)">
                        <clipPath id="_clip18">
                            <rect x="172.618" y="693.421" width="52.346" height="66.476"/>
                        </clipPath>
                        <g clip-path="url(#_clip18)">
                            <path d="M224.963,655.122C224.963,636.778 213.236,621.884 198.79,621.884C184.345,621.884 172.618,636.778 172.618,655.122L172.618,726.66C172.618,745.004 184.345,759.898 198.79,759.898C213.236,759.898 224.963,745.004 224.963,726.66L224.963,655.122Z" style="fill:rgb(47,51,96);"/>
                        </g>
                    </g>
                    <g transform="matrix(0.955186,0,0,0.752149,210.118,183.325)">
                        <clipPath id="_clip19">
                            <rect x="172.618" y="693.421" width="52.346" height="66.476"/>
                        </clipPath>
                        <g clip-path="url(#_clip19)">
                            <path d="M224.963,655.122C224.963,636.778 213.236,621.884 198.79,621.884C184.345,621.884 172.618,636.778 172.618,655.122L172.618,726.66C172.618,745.004 184.345,759.898 198.79,759.898C213.236,759.898 224.963,745.004 224.963,726.66L224.963,655.122Z" style="fill:rgb(47,51,96);"/>
                        </g>
                    </g>
                    <g transform="matrix(0.955186,0,0,0.752149,97.6181,183.325)">
                        <clipPath id="_clip20">
                            <rect x="172.618" y="693.421" width="52.346" height="66.476"/>
                        </clipPath>
                        <g clip-path="url(#_clip20)">
                            <path d="M224.963,655.122C224.963,636.778 213.236,621.884 198.79,621.884C184.345,621.884 172.618,636.778 172.618,655.122L172.618,726.66C172.618,745.004 184.345,759.898 198.79,759.898C213.236,759.898 224.963,745.004 224.963,726.66L224.963,655.122Z" style="fill:rgb(47,51,96);"/>
                        </g>
                    </g>
                    <g transform="matrix(0.955186,0,0,0.752149,435.118,183.325)">
                        <clipPath id="_clip21">
                            <rect x="172.618" y="693.421" width="52.346" height="66.476"/>
                        </clipPath>
                        <g clip-path="url(#_clip21)">
                            <path d="M224.963,655.122C224.963,636.778 213.236,621.884 198.79,621.884C184.345,621.884 172.618,636.778 172.618,655.122L172.618,726.66C172.618,745.004 184.345,759.898 198.79,759.898C213.236,759.898 224.963,745.004 224.963,726.66L224.963,655.122Z" style="fill:rgb(47,51,96);"/>
                        </g>
                    </g>
                </g>
            </g>
        </g>
        <g transform="matrix(1,0,0,1,-5.68434e-14,115.799)">
            <g transform="matrix(1,0,0,1,-73.9466,46.5807)">
                <path d="M235.627,444.496L235.627,419.099L267.673,419.099L268.763,411.469L226.253,411.469L226.253,486.461L269.744,486.461L269.744,478.94L235.627,478.94L235.627,452.235L263.422,452.235L263.422,444.496L235.627,444.496Z" style="fill:rgb(246,246,246);fill-rule:nonzero;"/>
                <path d="M326.533,427.819C320.647,427.819 317.05,430.98 313.889,435.449C312.145,429.563 307.894,427.819 303.534,427.819C297.757,427.819 294.16,431.307 290.999,435.776L290.454,429.127L283.369,429.127L283.369,486.461L291.762,486.461L291.762,441.88C294.923,436.975 298.193,434.904 301.79,434.904C305.932,434.904 306.259,437.956 306.259,445.259L306.259,486.461L314.761,486.461L314.761,441.88C317.922,436.975 321.41,434.904 324.789,434.904C328.931,434.904 329.258,437.956 329.258,445.259L329.258,486.461L337.651,486.461L337.651,443.733C337.651,430.544 331.983,427.819 326.533,427.819Z" style="fill:rgb(246,246,246);fill-rule:nonzero;"/>
                <path d="M363.157,436.539L363.157,404.82L354.11,405.91L354.11,486.461L362.067,486.461L362.721,480.466C366.536,485.48 371.659,487.66 378.308,487.66C393.132,487.66 401.089,475.125 401.089,457.685C401.089,439.7 394.876,427.819 379.507,427.819C372.967,427.819 367.299,430.98 363.157,436.539ZM376.237,480.357C370.896,480.357 366.209,477.523 363.157,472.945L363.157,444.387C366.209,439.809 371.114,435.122 377.545,435.122C386.483,435.122 391.17,442.643 391.17,457.685C391.17,473.054 385.829,480.357 376.237,480.357Z" style="fill:rgb(246,246,246);fill-rule:nonzero;"/>
                <path d="M426.486,460.955L465.072,460.955C465.181,459.756 465.29,458.012 465.29,456.05C465.29,438.61 456.461,427.819 441.637,427.819C426.813,427.819 417.003,440.463 417.003,457.794C417.003,475.67 426.486,487.66 443.272,487.66C450.357,487.66 457.551,485.153 462.892,481.011L458.641,474.798C453.627,478.831 448.504,480.139 443.272,480.139C434.443,480.139 426.922,474.362 426.486,460.955ZM441.746,435.34C450.793,435.34 456.352,441.662 456.57,453.979L426.486,453.979C427.249,441.335 433.571,435.34 441.746,435.34Z" style="fill:rgb(246,246,246);fill-rule:nonzero;"/>
                <path d="M528.074,405.91L519.027,404.82L519.027,434.686C515.212,430.217 510.198,427.819 503.658,427.819C489.488,427.819 481.095,440.572 481.095,457.903C481.095,475.67 487.962,487.66 503.004,487.66C509.326,487.66 514.994,484.935 519.245,478.94L520.117,486.461L528.074,486.461L528.074,405.91ZM505.947,435.122C511.288,435.122 515.975,437.956 519.027,442.534L519.027,471.31C515.975,475.997 511.397,480.357 504.857,480.357C495.81,480.357 491.014,472.727 491.014,457.794C491.014,442.643 496.355,435.122 505.947,435.122Z" style="fill:rgb(246,246,246);fill-rule:nonzero;"/>
                <path d="M593.365,405.91L584.318,404.82L584.318,434.686C580.503,430.217 575.489,427.819 568.949,427.819C554.779,427.819 546.386,440.572 546.386,457.903C546.386,475.67 553.253,487.66 568.295,487.66C574.617,487.66 580.285,484.935 584.536,478.94L585.408,486.461L593.365,486.461L593.365,405.91ZM571.238,435.122C576.579,435.122 581.266,437.956 584.318,442.534L584.318,471.31C581.266,475.997 576.688,480.357 570.148,480.357C561.101,480.357 556.305,472.727 556.305,457.794C556.305,442.643 561.646,435.122 571.238,435.122Z" style="fill:rgb(246,246,246);fill-rule:nonzero;"/>
                <path d="M622.359,460.955L660.945,460.955C661.054,459.756 661.163,458.012 661.163,456.05C661.163,438.61 652.334,427.819 637.51,427.819C622.686,427.819 612.876,440.463 612.876,457.794C612.876,475.67 622.359,487.66 639.145,487.66C646.23,487.66 653.424,485.153 658.765,481.011L654.514,474.798C649.5,478.831 644.377,480.139 639.145,480.139C630.316,480.139 622.795,474.362 622.359,460.955ZM637.619,435.34C646.666,435.34 652.225,441.662 652.443,453.979L622.359,453.979C623.122,441.335 629.444,435.34 637.619,435.34Z" style="fill:rgb(246,246,246);fill-rule:nonzero;"/>
                <path d="M723.947,405.91L714.9,404.82L714.9,434.686C711.085,430.217 706.071,427.819 699.531,427.819C685.361,427.819 676.968,440.572 676.968,457.903C676.968,475.67 683.835,487.66 698.877,487.66C705.199,487.66 710.867,484.935 715.118,478.94L715.99,486.461L723.947,486.461L723.947,405.91ZM701.82,435.122C707.161,435.122 711.848,437.956 714.9,442.534L714.9,471.31C711.848,475.997 707.27,480.357 700.73,480.357C691.683,480.357 686.887,472.727 686.887,457.794C686.887,442.643 692.228,435.122 701.82,435.122Z" style="fill:rgb(246,246,246);fill-rule:nonzero;"/>
            </g>
            <g transform="matrix(3.78677,0,0,3.78677,130.95,-42.2917)">
                <path d="M71.05,23.68C44.99,23.68 23.78,44.9 23.78,70.95C23.78,97 45,118.22 71.05,118.22C97.1,118.22 118.32,97 118.32,70.95C118.32,44.9 97.1,23.68 71.05,23.68ZM70.98,27.88C72.65,27.923 74.001,29.314 74,30.99C74,32.696 72.596,34.1 70.89,34.1C69.184,34.1 67.78,32.696 67.78,30.99C67.78,30.99 67.78,30.989 67.78,30.989C67.78,29.283 69.184,27.879 70.89,27.879C70.92,27.879 70.95,27.879 70.98,27.88ZM78.1,33C89.144,35.069 98.735,41.899 104.3,51.66L100.63,59.94C100,61.37 100.65,63.05 102.07,63.69L109.13,66.82C109.349,69.027 109.376,71.249 109.21,73.46L105.28,73.46C104.89,73.46 104.73,73.72 104.73,74.1L104.73,75.9C104.73,80.14 102.34,81.07 100.24,81.3C98.24,81.53 96.03,80.46 95.75,79.24C94.57,72.61 92.61,71.2 89.51,68.75C93.36,66.31 97.36,62.7 97.36,57.88C97.36,52.67 93.79,49.39 91.36,47.78C87.94,45.53 84.16,45.08 83.14,45.08L42.54,45.08C48.153,38.81 55.681,34.562 63.95,33L68.74,38.02C69.82,39.15 71.61,39.2 72.74,38.11L78.1,33ZM33.9,56.02C35.572,56.068 36.921,57.457 36.92,59.13C36.92,60.836 35.516,62.24 33.81,62.24C32.104,62.24 30.7,60.836 30.7,59.13C30.7,59.13 30.7,59.129 30.7,59.129C30.7,57.423 32.104,56.019 33.81,56.019C33.84,56.019 33.87,56.019 33.9,56.02ZM108.05,56.16C109.722,56.208 111.071,57.597 111.07,59.27C111.07,60.976 109.666,62.38 107.96,62.38C106.254,62.38 104.85,60.976 104.85,59.27C104.85,59.27 104.85,59.269 104.85,59.269C104.85,57.563 106.254,56.159 107.96,56.159C107.99,56.159 108.02,56.159 108.05,56.16ZM39.76,56.66L45.18,56.66L45.18,81.1L34.24,81.1C32.889,76.356 32.468,71.394 33,66.49L39.7,63.51C41.13,62.87 41.78,61.2 41.14,59.77L39.76,56.66ZM62.38,56.92L75.29,56.92C75.96,56.92 80,57.69 80,60.72C80,63.23 76.9,64.13 74.35,64.13L62.37,64.13L62.38,56.92ZM62.38,74.48L72.27,74.48C73.17,74.48 77.1,74.74 78.35,79.76C78.74,81.3 79.61,86.32 80.2,87.93C80.79,89.73 83.18,93.33 85.73,93.33L101.87,93.33C100.788,94.779 99.605,96.149 98.33,97.43L91.76,96.02C90.23,95.69 88.72,96.67 88.39,98.2L86.83,105.48C76.684,110.076 65.022,110.021 54.92,105.33L53.36,98.05C53.03,96.52 51.53,95.54 50,95.87L43.57,97.25C42.377,96.019 41.268,94.71 40.25,93.33L71.52,93.33C71.87,93.33 72.11,93.27 72.11,92.94L72.11,81.88C72.11,81.56 71.87,81.49 71.52,81.49L62.37,81.49L62.38,74.48ZM47.95,99.81C49.622,99.858 50.971,101.247 50.97,102.92C50.97,104.626 49.566,106.03 47.86,106.03C46.154,106.03 44.75,104.626 44.75,102.92C44.75,102.92 44.75,102.919 44.75,102.919C44.75,101.213 46.154,99.809 47.86,99.809C47.89,99.809 47.92,99.809 47.95,99.81ZM94,99.95C95.672,99.998 97.021,101.387 97.02,103.06C97.02,104.766 95.616,106.17 93.91,106.17C92.204,106.17 90.8,104.766 90.8,103.06C90.8,103.06 90.8,103.059 90.8,103.059C90.8,101.353 92.204,99.949 93.91,99.949C93.94,99.949 93.97,99.949 94,99.95Z" style="fill:rgb(246,246,246);fill-rule:nonzero;"/>
                <path d="M115.68,70.95C115.68,95.433 95.533,115.58 71.05,115.58C46.567,115.58 26.42,95.433 26.42,70.95C26.42,46.467 46.567,26.32 71.05,26.32C95.533,26.32 115.68,46.467 115.68,70.95ZM114.84,66.64L121.8,70.95L114.84,75.26L120.82,80.85L113.16,83.72L117.94,90.37L109.85,91.69L113.25,99.15L105.06,98.86L106.94,106.84L98.96,104.96L99.25,113.15L91.79,109.75L90.47,117.84L83.82,113.06L80.95,120.72L75.36,114.74L71.05,121.7L66.74,114.74L61.15,120.72L58.28,113.06L51.63,117.84L50.31,109.75L42.85,113.15L43.14,104.96L35.16,106.84L37.04,98.86L28.85,99.15L32.25,91.69L24.16,90.37L28.94,83.72L21.28,80.85L27.26,75.26L20.3,70.95L27.26,66.64L21.28,61.05L28.94,58.18L24.16,51.53L32.25,50.21L28.85,42.75L37.04,43.04L35.16,35.06L43.14,36.94L42.85,28.75L50.31,32.15L51.63,24.06L58.28,28.84L61.15,21.18L66.74,27.16L71.05,20.2L75.36,27.16L80.95,21.18L83.82,28.84L90.47,24.06L91.79,32.15L99.25,28.75L98.96,36.94L106.94,35.06L105.06,43.04L113.25,42.75L109.85,50.21L117.94,51.53L113.16,58.18L120.82,61.05L114.84,66.64Z" style="fill:rgb(246,246,246);stroke:rgb(246,246,246);stroke-width:3px;"/>
            </g>
        </g>
    </g>
</svg>
